<svg xmlns="http://www.w3.org/2000/svg" viewBox="0 0 96 96" fill="none">
  <g transform="translate(0,0)">
    <path d="M2 2h32M2 2v32" stroke="#f0d98a" stroke-width="2" stroke-linecap="round"/>
    <path d="M6 6c6-2 10 2 12 8s1 12 7 16" stroke="#d4b36a" stroke-width="1.2" stroke-linecap="round"/>
    <circle cx="5" cy="5" r="2.5" fill="#f0d98a"/>
    <text x="12" y="14" font-size="8" fill="#5ef0c8" opacity="0.5" font-family="serif"> </text>
  </g>
  <g transform="translate(96,0) scale(-1,1)">
    <path d="M2 2h32M2 2v32" stroke="#f0d98a" stroke-width="2" stroke-linecap="round"/>
    <path d="M6 6c6-2 10 2 12 8s1 12 7 16" stroke="#d4b36a" stroke-width="1.2" stroke-linecap="round"/>
    <circle cx="5" cy="5" r="2.5" fill="#f0d98a"/>
    <text x="12" y="14" font-size="8" fill="#5ef0c8" opacity="0.5" font-family="serif">¢</text>
  </g>
  <g transform="translate(0,96) scale(1,-1)">
    <path d="M2 2h32M2 2v32" stroke="#f0d98a" stroke-width="2" stroke-linecap="round"/>
    <path d="M6 6c6-2 10 2 12 8s1 12 7 16" stroke="#d4b36a" stroke-width="1.2" stroke-linecap="round"/>
    <circle cx="5" cy="5" r="2.5" fill="#f0d98a"/>
    <text x="12" y="14" font-size="8" fill="#5ef0c8" opacity="0.5" font-family="serif">¦</text>
  </g>
  <g transform="translate(96,96) scale(-1,-1)">
    <path d="M2 2h32M2 2v32" stroke="#f0d98a" stroke-width="2" stroke-linecap="round"/>
    <path d="M6 6c6-2 10 2 12 8s1 12 7 16" stroke="#d4b36a" stroke-width="1.2" stroke-linecap="round"/>
    <circle cx="5" cy="5" r="2.5" fill="#f0d98a"/>
    <text x="12" y="14" font-size="8" fill="#5ef0c8" opacity="0.5" font-family="serif">¨</text>
  </g>
</svg>
