<svg xmlns="http://www.w3.org/2000/svg" viewBox="0 0 100 100">
  <defs>
    <radialGradient id="bg" cx="50%" cy="60%" r="50%">
      <stop offset="0%" stop-color="#ffe880" stop-opacity="0.2"/>
      <stop offset="100%" stop-color="#8b6914" stop-opacity="0"/>
    </radialGradient>
  </defs>
  <circle cx="50" cy="50" r="48" fill="url(#bg)"/>
  <!-- sun rays upward -->
  <g fill="none" stroke="#e8c040" stroke-width="1.3" stroke-linecap="round" opacity="0.85">
    <path d="M50 6 L50 18"/>
    <path d="M30 14 L36 24"/>
    <path d="M70 14 L64 24"/>
    <path d="M14 34 L24 38"/>
    <path d="M86 34 L76 38"/>
    <path d="M8 50 L20 50"/>
    <path d="M92 50 L80 50"/>
  </g>
  <!-- wing chevrons -->
  <g fill="none" stroke="#d4b030" stroke-width="1.5" opacity="0.9">
    <path d="M20 62 L32 48 L44 58 L50 42 L56 58 L68 48 L80 62"/>
    <path d="M26 68 L38 56 L50 64 L62 56 L74 68" opacity="0.6"/>
  </g>
  <!-- upward arrows -->
  <g fill="#c9a020" opacity="0.8">
    <path d="M50 10 L54 20 L52 20 L52 28 L48 28 L48 20 L46 20 Z"/>
    <path d="M24 28 L28 36 L26 36 L26 40 L22 40 L22 36 L20 36 Z" transform="rotate(-35 24 34)"/>
    <path d="M76 28 L80 36 L78 36 L78 40 L74 40 L74 36 L72 36 Z" transform="rotate(35 76 34)"/>
  </g>
  <!-- golden ring arcs -->
  <circle cx="50" cy="50" r="42" fill="none" stroke="#f0d060" stroke-width="1.2" opacity="0.5" stroke-dasharray="4 6"/>
  <circle cx="50" cy="50" r="46" fill="none" stroke="#c9a030" stroke-width="0.8" opacity="0.4"/>
</svg>
